Coordinates
nRows=5
nColumns=38

# SIMM Motion File Header:
name Coordinates
datacolumns 38
datarows 5
otherdata 1
range 4.04999999999999980000 4.05399999999999940000

Units are S.I. units (second, meters, Newtons, ...)
Angles are in degrees.

endheader
time	pelvis_tilt	pelvis_list	pelvis_rotation	pelvis_tx	pelvis_ty	pelvis_tz	hip_flexion_r	hip_adduction_r	hip_rotation_r	knee_angle_r	ankle_angle_r	subtalar_angle_r	mtp_angle_r	hip_flexion_l	hip_adduction_l	hip_rotation_l	knee_angle_l	ankle_angle_l	subtalar_angle_l	mtp_angle_l	lumbar_extension	lumbar_bending	lumbar_rotation	arm_flex_r	arm_add_r	arm_rot_r	elbow_flex_r	pro_sup_r	wrist_flex_r	wrist_dev_r	arm_flex_l	arm_add_l	arm_rot_l	elbow_flex_l	pro_sup_l	wrist_flex_l	wrist_dev_l
      4.04999999999999980000	     -6.93703751120639730000	     -0.26636338694762374000	      1.43146724010150320000	      0.97951991110244763000	      0.98447521367383850000	     -0.30944869292485694000	     26.70959913628540100000	      2.10985396275054080000	    -12.10273262456361500000	    -13.66832786575403200000	      2.10398097452145420000	      0.00000000000000000000	      0.00000000000000000000	     -5.91046094696460590000	      2.35394157486885770000	      3.46366759175578620000	    -32.39513883541180000000	    -13.99721349426958200000	      0.00000000000000000000	      0.00000000000000000000	     -4.81394528481177810000	      0.03920286044535566800	     -8.22896450359937860000	    -41.14521129486951900000	    -15.34915152680117600000	     -2.76618637842979530000	    100.18707638662130000000	     84.51340375533266100000	      0.00000000000000000000	      0.00000000000000000000	     -9.01376302186360330000	    -26.07266489799501100000	      4.50793157875553070000	    123.22485712526728000000	    112.48049659722993000000	      0.00000000000000000000	      0.00000000000000000000
      4.05100000000000020000	     -6.87623983339792040000	     -0.23828024478417309000	      1.45840933365674470000	      0.97967280072293805000	      0.98415599900866069000	     -0.30948390146022287000	     26.62566586834922000000	      2.06233591161469040000	    -12.19409430079917600000	    -13.80931123618305600000	      2.14193219019714260000	      0.00000000000000001323	     -0.00000000000000001814	     -5.85366063001756840000	      2.39085960509010720000	      3.52482200609237410000	    -32.78807618415603300000	    -14.14668124917724200000	     -0.00000000000000000013	     -0.00000000000000000503	     -4.86510075975843930000	      0.02668317024961021700	     -8.22241296508074630000	    -41.13406675059026400000	    -15.36249026202120900000	     -2.77579783090553840000	    100.25244287211005000000	     84.53357015358970700000	     -0.00000000000000000022	     -0.00000000000000000452	     -9.06591272456726750000	    -26.06418324594164600000	      4.50148993225729030000	    123.15414571951862000000	    112.53115714920989000000	     -0.00000000000000000488	     -0.00000000000000000010
      4.05199999999999960000	     -6.81415086204183670000	     -0.21138403933551692000	      1.48486402175317520000	      0.97982490045652759000	      0.98382942903756698000	     -0.30951766404561137000	     26.54098646983707600000	      2.01699882076073410000	    -12.27291666028600900000	    -13.95755701666794100000	      2.21939646577152550000	      0.00000000000000009592	     -0.00000000000000004139	     -5.79622384046947130000	      2.42647192685460710000	      3.58391535646364770000	    -33.18429054546608400000	    -14.29758185108915900000	     -0.00000000000000000589	     -0.00000000000000000157	     -4.91789044784083010000	      0.01551745467762333100	     -8.21469286779711720000	    -41.12270612373473000000	    -15.37612140920032100000	     -2.78558211941000520000	    100.31834836399685000000	     84.55295374896206800000	     -0.00000000000000000057	      0.00000000000000002608	     -9.11660815242013990000	    -26.05586673301817100000	      4.49490464824918680000	    123.08153156847277000000	    112.58083039809718000000	     -0.00000000000000002091	     -0.00000000000000000188
      4.05299999999999990000	     -6.75104091436478890000	     -0.18635559196399670000	      1.51039867832973070000	      0.97997495623366560000	      0.98349658438052634000	     -0.30955066179322838000	     26.45664337844668500000	      1.97317773962122960000	    -12.35229065672367100000	    -14.11429039089942200000	      2.28886397108511020000	      0.00000000000000013182	     -0.00000000000000006926	     -5.73769478542129360000	      2.46016888116426590000	      3.64042024742643110000	    -33.58387857075601300000	    -14.44985914424078600000	     -0.00000000000000001438	      0.00000000000000000489	     -4.97213814465211530000	      0.00660591472351393890	     -8.20527132821760930000	    -41.11078801316487100000	    -15.39040617901551000000	     -2.79565309795133740000	    100.38458000412433000000	     84.57143626866600500000	     -0.00000000000000000059	      0.00000000000000006907	     -9.16568850595394120000	    -26.04716906405233000000	      4.48832488862962450000	    123.00657283615872000000	    112.62973381518654000000	     -0.00000000000000007592	     -0.00000000000000000574
      4.05399999999999940000	     -6.68622444318789630000	     -0.16331877128222189000	      1.53627684768628270000	      0.98012305348384177000	      0.98315853323238755000	     -0.30958422522287438000	     26.37152712650769400000	      1.93080404334585710000	    -12.43069724718835700000	    -14.27856051301962000000	      2.35783956875985320000	      0.00000000000000018147	     -0.00000000000000012794	     -5.67862634102972490000	      2.49160390841243910000	      3.69541999836601540000	    -33.98699624876340400000	    -14.60334644736144000000	     -0.00000000000000002699	      0.00000000000000001277	     -5.02861354670873690000	      0.00012592557664076222	     -8.19532958240743350000	    -41.09809838618252100000	    -15.40526725874467200000	     -2.80597646169663180000	    100.45111831265211000000	     84.58907318459402800000	     -0.00000000000000000005	      0.00000000000000010950	     -9.21309612485204180000	    -26.03829043174035000000	      4.48176712477590660000	    122.92940352982789000000	    112.67765857130493000000	     -0.00000000000000010628	     -0.00000000000000001072
